<svg xmlns="http://www.w3.org/2000/svg" viewBox="0 0 1600 1000" role="img" aria-label="Placeholder floor plan">
  <rect width="1600" height="1000" fill="#f4f1e9"/>
  <g stroke="#c7c1b3" stroke-width="1">
    <g>
      <!-- light construction grid -->
      <line x1="0" y1="100" x2="1600" y2="100"/><line x1="0" y1="200" x2="1600" y2="200"/>
      <line x1="0" y1="300" x2="1600" y2="300"/><line x1="0" y1="400" x2="1600" y2="400"/>
      <line x1="0" y1="500" x2="1600" y2="500"/><line x1="0" y1="600" x2="1600" y2="600"/>
      <line x1="0" y1="700" x2="1600" y2="700"/><line x1="0" y1="800" x2="1600" y2="800"/>
      <line x1="0" y1="900" x2="1600" y2="900"/>
      <line x1="100" y1="0" x2="100" y2="1000"/><line x1="300" y1="0" x2="300" y2="1000"/>
      <line x1="500" y1="0" x2="500" y2="1000"/><line x1="700" y1="0" x2="700" y2="1000"/>
      <line x1="900" y1="0" x2="900" y2="1000"/><line x1="1100" y1="0" x2="1100" y2="1000"/>
      <line x1="1300" y1="0" x2="1300" y2="1000"/><line x1="1500" y1="0" x2="1500" y2="1000"/>
    </g>
  </g>
  <!-- poché walls -->
  <g fill="#1a1a1d">
    <rect x="280" y="200" width="1040" height="18"/>
    <rect x="280" y="782" width="1040" height="18"/>
    <rect x="280" y="200" width="18" height="600"/>
    <rect x="1302" y="200" width="18" height="600"/>
    <rect x="700" y="218" width="14" height="420"/>
    <rect x="298" y="500" width="416" height="14"/>
  </g>
  <!-- door swings -->
  <g fill="none" stroke="#1a1a1d" stroke-width="3">
    <path d="M520 782 A60 60 0 0 1 580 722"/>
    <path d="M980 514 A50 50 0 0 1 1030 464"/>
  </g>
  <!-- dimension string -->
  <g stroke="#9c4a25" stroke-width="2" font-family="monospace" font-size="22" fill="#9c4a25">
    <line x1="280" y1="150" x2="1320" y2="150"/>
    <line x1="280" y1="140" x2="280" y2="160"/><line x1="700" y1="140" x2="700" y2="160"/>
    <line x1="1320" y1="140" x2="1320" y2="160"/>
    <text x="470" y="138">6400</text><text x="990" y="138">6200</text>
  </g>
  <!-- north arrow -->
  <g transform="translate(1430,120)" stroke="#1a1a1d" stroke-width="3" fill="#1a1a1d">
    <circle cx="0" cy="0" r="36" fill="none"/>
    <path d="M0 -30 L10 10 L0 0 L-10 10 Z"/>
    <text x="-8" y="58" font-family="monospace" font-size="24">N</text>
  </g>
  <g font-family="monospace" fill="#56524a" font-size="26">
    <text x="360" y="360">READING ROOM</text>
    <text x="760" y="360">STACKS</text>
    <text x="360" y="700">ENTRY · LOBBY</text>
  </g>
  <text x="60" y="940" font-family="monospace" font-size="22" fill="#b8b1a2" letter-spacing="4">PLACEHOLDER · GROUND FLOOR PLAN · replace with your drawing</text>
</svg>
