<svg xmlns="http://www.w3.org/2000/svg" viewBox="0 0 1600 1000" role="img" aria-label="Placeholder render">
  <defs>
    <linearGradient id="sky" x1="0" y1="0" x2="0" y2="1">
      <stop offset="0" stop-color="#cdd6dd"/><stop offset="1" stop-color="#eef0ec"/>
    </linearGradient>
    <linearGradient id="mass" x1="0" y1="0" x2="0" y2="1">
      <stop offset="0" stop-color="#d8d2c6"/><stop offset="1" stop-color="#9d978a"/>
    </linearGradient>
  </defs>
  <rect width="1600" height="1000" fill="url(#sky)"/>
  <circle cx="1280" cy="220" r="90" fill="#f3ede0" opacity="0.7"/>
  <!-- ground -->
  <rect x="0" y="760" width="1600" height="240" fill="#c8c2b4"/>
  <!-- massing blocks -->
  <g>
    <polygon points="380,760 380,420 760,360 760,760" fill="url(#mass)"/>
    <polygon points="760,760 760,360 1140,420 1140,760" fill="#b7b1a4"/>
    <polygon points="380,420 540,360 920,300 760,360" fill="#e7e1d4"/>
    <polygon points="760,360 920,300 1300,360 1140,420" fill="#ccc6b9"/>
  </g>
  <!-- glazing grid -->
  <g stroke="#8a8478" stroke-width="2" opacity="0.6">
    <line x1="460" y1="430" x2="460" y2="760"/><line x1="560" y1="418" x2="560" y2="760"/>
    <line x1="660" y1="404" x2="660" y2="760"/>
    <line x1="380" y1="520" x2="760" y2="468"/><line x1="380" y1="620" x2="760" y2="568"/>
    <line x1="860" y1="376" x2="860" y2="760"/><line x1="1000" y1="392" x2="1000" y2="760"/>
  </g>
  <!-- entourage figures -->
  <g fill="#6b6458">
    <rect x="520" y="710" width="10" height="44"/><circle cx="525" cy="704" r="8"/>
    <rect x="980" y="712" width="10" height="42"/><circle cx="985" cy="706" r="8"/>
  </g>
  <text x="60" y="940" font-family="monospace" font-size="22" fill="#7a7468" letter-spacing="4">PLACEHOLDER · EXTERIOR VIEW · replace with your render</text>
</svg>
